<svg width="27" height="20" viewBox="0 0 27 20" fill="none" xmlns="http://www.w3.org/2000/svg">
<path d="M13.516 19C9.39408 19 5.27219 19 1.18225 19C0.734911 19 0.383432 18.8084 0.159763 18.4252C0.0639053 18.2655 0.0319527 18.0739 0.0319527 17.8824C0.0319527 17.0202 0.0319527 16.158 0.0319527 15.3277C0 10.6017 0 5.90756 0 1.18151C0 0.830252 0.095858 0.542857 0.319527 0.319328C0.543195 0.127731 0.766864 0 1.02249 0C1.11834 0 1.2142 0 1.31006 0C9.48994 0 17.6698 0 25.8497 0C26.4249 0 26.8402 0.287395 26.968 0.798319C26.968 0.894118 27 1.02185 27 1.14958C27 6.73782 27 12.2941 27 17.8824C27 18.5849 26.5527 19.0319 25.8497 19.0319C21.7278 19.0319 17.6059 19.0319 13.516 19.0319V19ZM3.99408 2.17143C4.1858 2.33109 4.34556 2.49076 4.50533 2.61849C5.49586 3.48067 6.51834 4.37479 7.50888 5.23697C8.24379 5.87563 8.9787 6.51429 9.71361 7.15294C10.5763 7.8874 11.4071 8.62185 12.2698 9.3563C12.6533 9.67563 13.0367 10.0269 13.4201 10.3782C13.484 10.442 13.5479 10.5059 13.6438 10.3782C14.187 9.89916 14.7302 9.42017 15.3053 8.94118C16.0722 8.27059 16.8391 7.6 17.6059 6.92941C18.4367 6.19496 19.2994 5.4605 20.1302 4.72605C20.897 4.05546 21.6639 3.38487 22.4627 2.71429C22.6544 2.55462 22.8142 2.39496 23.0379 2.20336H3.99408V2.17143ZM4.02604 16.8286C4.02604 16.8286 4.1858 16.8286 4.28166 16.8286C10.4485 16.8286 16.6154 16.8286 22.7503 16.8286C22.7822 16.8286 22.8142 16.8286 22.8781 16.8286C22.9101 16.8286 22.942 16.8286 22.974 16.8286C22.974 16.7647 22.974 16.7647 22.9101 16.7328C22.6864 16.5092 22.4308 16.3176 22.2071 16.0941C21.1846 15.2 20.1302 14.3059 19.1077 13.3798C18.213 12.5815 17.3183 11.8151 16.4237 11.0168C16.3278 10.9529 16.2639 10.9529 16.2 11.0168C15.5609 11.5597 14.9219 12.1345 14.3148 12.6773C14.0911 12.8689 13.8675 12.9647 13.5799 12.9647C13.2284 12.9647 12.9408 12.7731 12.6852 12.5496C12.1101 12.0387 11.5349 11.5277 10.9278 11.0168C10.832 10.921 10.768 10.921 10.6402 11.0168C9.68166 11.8471 8.72308 12.6773 7.7645 13.5076C6.83787 14.3378 5.87929 15.1361 4.95266 15.9664C4.66509 16.2218 4.34556 16.5092 4.02604 16.7647V16.8286ZM2.17278 9.48403C2.17278 9.96303 2.17278 10.442 2.17278 10.921C2.17278 12.3899 2.17278 13.8588 2.17278 15.3277C2.17278 15.3916 2.17278 15.4555 2.17278 15.4555C2.23669 15.4874 2.26864 15.4235 2.30059 15.3916C2.74793 15.0084 3.16331 14.6571 3.61065 14.2739C4.44142 13.5395 5.30414 12.805 6.13491 12.0706C7.09349 11.2403 8.02012 10.4101 8.9787 9.57983C9.07456 9.51597 9.07456 9.4521 8.9787 9.38824C8.30769 8.81345 7.63669 8.20672 6.96568 7.63193C5.78343 6.57815 4.56923 5.5563 3.35503 4.50252C3.00355 4.18319 2.65207 3.8958 2.30059 3.57647C2.26864 3.57647 2.23669 3.48067 2.17278 3.51261C2.10888 3.51261 2.17278 3.6084 2.14083 3.64034C2.14083 3.67227 2.14083 3.73613 2.14083 3.76807C2.14083 5.68403 2.14083 7.56807 2.14083 9.48403H2.17278ZM24.8272 3.51261C24.8272 3.51261 24.6675 3.6084 24.6035 3.67227C23.8367 4.34286 23.0698 5.01345 22.303 5.71597C20.897 6.96134 19.4911 8.17479 18.0533 9.42017C17.9254 9.51597 17.9574 9.57983 18.0533 9.6437C18.7243 10.2504 19.4272 10.8252 20.0982 11.4319C21.2485 12.4218 22.3669 13.4118 23.5172 14.4336C23.9006 14.7849 24.284 15.1042 24.6675 15.4555C24.6994 15.4555 24.7314 15.5193 24.7953 15.5193C24.8592 15.5193 24.7953 15.4555 24.7953 15.3916C24.7953 15.3916 24.7953 15.3597 24.7953 15.3277C24.7953 11.4639 24.7953 7.6 24.7953 3.76807C24.7953 3.7042 24.7953 3.64034 24.7953 3.57647L24.8272 3.51261Z" fill="#8D96AA"/>
</svg>
