<svg width="21" height="21" viewBox="0 0 21 21" fill="none" xmlns="http://www.w3.org/2000/svg">
<path d="M21 10.4851C21 4.70638 16.3234 0 10.5149 0C4.70638 0 0 4.6766 0 10.4851C0 16.2936 4.6766 20.9702 10.4851 20.9702C16.2638 20.9702 20.9702 16.2936 20.9702 10.4851H21ZM10.4851 19.183C10.0383 19.183 9.29362 18.5574 8.60851 17.1574C8.34043 16.5319 8.07234 15.817 7.86383 15.0426H13.0468C12.8383 15.8468 12.6 16.5319 12.3021 17.1574C11.6468 18.5574 10.9021 19.183 10.4255 19.183H10.4851ZM7.56596 13.2553C7.44681 12.3915 7.35745 11.4383 7.35745 10.4851C7.35745 9.53191 7.44681 8.54894 7.56596 7.59574H13.4043C13.5532 8.51915 13.6128 9.47234 13.6128 10.4851C13.6128 11.4979 13.5532 12.3617 13.4043 13.2553H7.53617H7.56596ZM1.81702 10.4851C1.81702 9.47234 1.99574 8.51915 2.3234 7.56596H5.77872C5.65957 8.48936 5.57021 9.44255 5.57021 10.4851C5.57021 11.5277 5.62979 12.3617 5.74894 13.2553H2.26383C1.99574 12.3915 1.81702 11.4383 1.81702 10.4851ZM10.4851 1.81702C10.9319 1.81702 11.6766 2.44255 12.3617 3.84255C12.6298 4.4383 12.8681 5.1234 13.0766 5.8383H7.95319C8.1617 5.09362 8.37021 4.4383 8.66809 3.84255C9.3234 2.44255 10.0681 1.81702 10.5447 1.81702H10.4851ZM15.2213 7.65532H18.7064C19.0043 8.54894 19.183 9.53191 19.183 10.5149C19.183 11.4979 19.0043 12.4213 18.7362 13.3149H15.2511C15.3702 12.4213 15.4298 11.4681 15.4298 10.5149C15.4298 9.5617 15.3702 8.57872 15.2213 7.65532ZM17.8723 5.8383H14.9234C14.6255 4.49787 14.1489 3.30638 13.6128 2.35319C14.7447 2.77021 15.7872 3.45532 16.6511 4.31915C17.0979 4.76596 17.5149 5.27234 17.8723 5.80851V5.8383ZM7.38723 2.38298C6.85106 3.30638 6.40425 4.49787 6.0766 5.8383H3.12766C3.45532 5.30213 3.87234 4.82553 4.31915 4.37872C5.18298 3.51489 6.22553 2.82979 7.35745 2.41277L7.38723 2.38298ZM3.06808 15.0426H6.04681C6.34468 16.4426 6.82128 17.6638 7.38723 18.617C6.25532 18.2 5.21277 17.5149 4.34894 16.6511C3.48511 15.7872 3.42553 15.6085 3.06808 15.0426ZM13.6128 18.617C14.1787 17.6638 14.6255 16.4426 14.9532 15.0723H17.9021C17.5745 15.6383 17.1277 16.1745 16.6511 16.6511C15.7872 17.5149 14.7447 18.2 13.6128 18.617Z" fill="#8D96AA"/>
</svg>
