<svg width="22" height="25" viewBox="0 0 22 25" fill="none" xmlns="http://www.w3.org/2000/svg">
<path d="M21.3225 18.163C20.366 16.8508 18.1695 15.4351 16.469 14.9862C16.221 14.9171 15.973 14.8826 15.7251 14.8826C15.052 14.8826 14.4143 15.1588 13.7766 15.7113C13.1035 16.2983 12.7138 16.471 12.5367 16.471C12.5367 16.471 12.0761 16.3674 11.6156 15.884C9.95051 14.2956 9.10026 13.1215 8.07289 11.0843C7.75405 10.4282 7.75405 10.1519 7.8249 10.0138C7.89576 9.84116 8.14374 9.56492 8.95856 9.11602C9.98593 8.56354 10.4465 7.87293 10.5528 6.87155C10.6945 5.14503 10.0214 2.69337 9.02941 1.38122C8.3563 0.448895 7.50606 0 6.47869 0C5.98271 0 5.45131 0.103591 4.88448 0.345304C2.72345 1.17403 1.23553 2.58978 0.526995 4.45442C-0.429526 6.90608 -0.0752591 10.0829 1.51894 13.1906C3.04229 16.2293 4.99076 18.8536 7.43521 21.2362C9.87965 23.6188 12.7492 24.9655 15.3354 24.9655C17.5318 24.9655 19.4449 24.0677 21.0036 22.2721C22.2082 20.9254 22.3144 19.5097 21.3225 18.1285V18.163ZM19.3032 20.8564C18.1695 22.134 16.8233 22.7901 15.2999 22.7901C13.316 22.7901 11.0487 21.6506 9.02941 19.7169C6.7621 17.5069 4.95534 15.0552 3.53827 12.2583C2.22748 9.66851 1.90864 7.14779 2.61717 5.31768C3.11315 4.00552 4.17595 3.00414 5.73472 2.3826C6.01814 2.27901 6.26613 2.20994 6.44326 2.20994C6.65582 2.20994 6.86838 2.27901 7.18722 2.69337C7.86033 3.59116 8.39173 5.52486 8.28545 6.73343C8.28545 6.97514 8.2146 7.0442 7.86033 7.21685C7.08094 7.63122 6.15985 8.21823 5.77015 9.15055C5.38046 9.97928 5.48674 10.9461 6.05357 12.0856C7.15179 14.261 8.25002 15.7804 10.0214 17.5069C10.8716 18.3356 11.6864 18.7155 12.5367 18.7155C12.6075 18.7155 12.6784 18.7155 12.7846 18.7155C13.812 18.6119 14.6977 17.9558 15.3354 17.4033C15.5834 17.1961 15.6542 17.1616 15.7959 17.1616C15.8313 17.1616 15.9022 17.1616 15.973 17.1616C17.1776 17.4724 18.878 18.5773 19.5511 19.4751C19.9408 19.9931 19.9054 20.3039 19.374 20.8909L19.3032 20.8564Z" fill="#8D96AA"/>
</svg>
