<svg width="1920" height="1080" viewBox="0 0 1920 1080" fill="none" xmlns="http://www.w3.org/2000/svg">
<path d="M1191.38 933.273L1046.34 1508H1525.08L1772.36 528.253L1743.95 504.663C1510.91 822.873 1191.44 933.273 1191.44 933.273H1191.38Z" fill="#8D96AA"/>
<path d="M756.944 405.661L924.359 -257.797H445.623L0 1508H478.736L659.528 791.529H659.925C663.634 791.662 668.203 791.794 673.17 791.993C698.203 663.834 708.402 535.742 768.003 407.583C764.295 406.92 759.924 406.191 756.878 405.661H756.944Z" fill="#8D96AA"/>
<path d="M1821.9 -307.099L1698.98 -215.453L1352.57 43.0518L1259.45 112.366L1333.82 117.403L1555.48 132.18C1546.93 141.523 1537.86 150.933 1528.39 160.343C1528.39 160.343 1452.43 235.357 1353.23 292.346C1333.03 303.942 1294.75 323.424 1277.8 330.979C1273.43 332.9 1269.12 334.822 1264.75 336.81C1255.68 340.654 1246.47 344.961 1237.47 348.407C1219.39 355.762 1201.38 362.72 1184.09 368.485C1140.12 383.594 1098.73 394.396 1059.66 402.149C1044.16 405.263 1028.93 407.583 1014.03 409.902C969.988 416.065 929.988 418.384 894.823 418.384C837.473 418.384 794.692 412.221 768.136 407.583C708.468 535.742 698.335 663.834 673.303 791.993C683.766 792.324 696.746 792.722 712.706 792.722C746.745 792.722 792.308 791.198 846.413 784.969C864.36 782.65 883.631 779.933 903.3 776.818C982.769 763.698 1075.15 740.504 1173.23 699.486C1201.77 687.491 1231.04 673.973 1260.78 658.864C1260.78 658.864 1327.93 624.273 1392.76 580.007C1583.36 449.662 1716.67 264.447 1716.67 264.447C1728.26 248.345 1741.04 229.658 1754.22 208.983L1781.63 231.778L1854.28 292.412L1929.64 354.901L1975.21 392.739L2013.29 23.3708L2047.19 -307.629L2066.07 -489.133L1821.96 -307.232L1821.9 -307.099Z" fill="#8D96AA"/>
</svg>
