<svg width="341" height="147" viewBox="0 0 341 147" fill="none" xmlns="http://www.w3.org/2000/svg">
<g clip-path="url(#clip0_3_1317)">
<path d="M20.916 123.42V111.709H24.8018L26.487 117.703C26.5465 117.92 26.6258 118.178 26.6852 118.474C26.7447 118.771 26.824 119.068 26.9033 119.345C26.9826 119.642 27.0421 119.899 27.0817 120.116H27.2205C27.2404 119.918 27.28 119.701 27.3395 119.424C27.399 119.167 27.4584 118.87 27.5179 118.554C27.5774 118.237 27.6567 117.96 27.736 117.663L29.4013 111.689H33.2079V123.4H30.69V117.861C30.69 117.347 30.69 116.832 30.69 116.318C30.69 115.804 30.69 115.349 30.7297 114.953C30.7297 114.558 30.7495 114.32 30.7495 114.201H30.6107C30.5909 114.32 30.5314 114.558 30.4521 114.894C30.3728 115.23 30.2737 115.586 30.1745 115.962C30.0754 116.338 29.9961 116.654 29.9168 116.931L28.0929 123.4H25.8724L24.0286 116.951C23.9691 116.714 23.8898 116.437 23.7907 116.101C23.7114 115.784 23.6321 115.448 23.5528 115.092C23.4735 114.755 23.414 114.439 23.3347 114.201H23.1959C23.1959 114.518 23.2158 114.874 23.2356 115.309C23.2356 115.744 23.2554 116.18 23.2752 116.615C23.2752 117.07 23.2752 117.485 23.2752 117.841V123.38H20.8763L20.916 123.42Z" fill="#2B3078"/>
<path d="M35.8248 123.42V111.709H45.2023V113.786H38.4022V116.397H44.4291V118.455H38.4022V121.303H45.3015V123.4H35.8248V123.42Z" fill="#2B3078"/>
<path d="M52.7559 123.637C51.5267 123.637 50.4958 123.42 49.6234 123.004C48.7511 122.589 48.0969 121.916 47.6409 121.026C47.1849 120.136 46.9668 118.989 46.9668 117.604C46.9668 115.566 47.4624 114.043 48.4735 113.034C49.4846 112.025 50.9121 111.551 52.736 111.551C53.7471 111.551 54.6393 111.729 55.4323 112.065C56.2253 112.401 56.8598 112.916 57.3157 113.608C57.7717 114.281 58.0096 115.151 58.0096 116.18H55.4521C55.4521 115.626 55.3332 115.171 55.1151 114.795C54.897 114.419 54.5798 114.142 54.1833 113.925C53.7868 113.727 53.311 113.628 52.7757 113.628C52.0421 113.628 51.4474 113.766 50.9716 114.063C50.4957 114.34 50.1587 114.755 49.9208 115.309C49.7027 115.863 49.5838 116.536 49.5838 117.327V117.861C49.5838 118.672 49.7027 119.365 49.9208 119.918C50.1389 120.472 50.4958 120.888 50.9517 121.165C51.4077 121.442 52.0025 121.58 52.736 121.58C53.311 121.58 53.8066 121.481 54.223 121.283C54.6393 121.086 54.9763 120.809 55.1944 120.433C55.4125 120.057 55.5314 119.602 55.5314 119.048H57.9898C57.9898 120.077 57.7717 120.947 57.3157 121.62C56.8598 122.292 56.2452 122.807 55.4521 123.143C54.6591 123.479 53.7471 123.637 52.7162 123.637H52.7559Z" fill="#2B3078"/>
<path d="M60.0319 123.42V111.709H62.5894V116.338H67.7837V111.709H70.3412V123.42H67.7837V118.514H62.5894V123.42H60.0319Z" fill="#2B3078"/>
<path d="M71.729 123.42L76.2492 111.709H79.4015L83.9217 123.42H81.166L80.3333 121.125H75.2183L74.3856 123.42H71.7488H71.729ZM75.932 119.068H79.5799L78.5292 116.18C78.4895 116.061 78.43 115.903 78.3706 115.725C78.3111 115.547 78.2516 115.349 78.1723 115.131C78.1128 114.914 78.0335 114.696 77.9741 114.498C77.9146 114.281 77.8551 114.103 77.7956 113.925H77.6965C77.637 114.142 77.5577 114.399 77.4784 114.676C77.3793 114.973 77.3 115.25 77.2009 115.507C77.1017 115.764 77.0423 116.002 76.9828 116.16L75.932 119.048V119.068Z" fill="#2B3078"/>
<path d="M85.2897 123.42V111.709H87.6291L92.3476 118.019C92.3476 118.019 92.5062 118.217 92.6053 118.356C92.7044 118.494 92.8036 118.633 92.9027 118.771C93.0018 118.91 93.0613 119.008 93.0811 119.088H93.1604V111.709H95.5791V123.42H93.2397L88.4221 116.951C88.3032 116.793 88.1842 116.615 88.0652 116.417C87.9463 116.219 87.8472 116.081 87.7877 115.982H87.7084V123.42H85.2897Z" fill="#2B3078"/>
<path d="M98.1962 123.42V111.709H100.754V123.42H98.1962Z" fill="#2B3078"/>
<path d="M108.585 123.637C107.356 123.637 106.325 123.42 105.452 123.004C104.58 122.589 103.926 121.916 103.47 121.026C103.014 120.136 102.796 118.989 102.796 117.604C102.796 115.566 103.291 114.043 104.302 113.034C105.314 112.025 106.741 111.551 108.565 111.551C109.576 111.551 110.468 111.729 111.261 112.065C112.054 112.401 112.689 112.916 113.145 113.608C113.601 114.281 113.839 115.151 113.839 116.18H111.281C111.281 115.626 111.162 115.171 110.944 114.795C110.726 114.419 110.409 114.142 110.012 113.925C109.616 113.727 109.14 113.628 108.605 113.628C107.871 113.628 107.276 113.766 106.8 114.063C106.325 114.34 105.988 114.755 105.75 115.309C105.532 115.863 105.413 116.536 105.413 117.327V117.861C105.413 118.672 105.532 119.365 105.75 119.918C105.968 120.472 106.325 120.888 106.781 121.165C107.237 121.442 107.831 121.58 108.565 121.58C109.14 121.58 109.635 121.481 110.052 121.283C110.468 121.086 110.805 120.809 111.023 120.433C111.241 120.057 111.36 119.602 111.36 119.048H113.819C113.819 120.077 113.601 120.947 113.145 121.62C112.689 122.292 112.074 122.807 111.281 123.143C110.488 123.479 109.576 123.637 108.545 123.637H108.585Z" fill="#2B3078"/>
<path d="M120.421 123.637C119.746 123.637 119.092 123.578 118.478 123.44C117.863 123.301 117.328 123.084 116.852 122.787C116.376 122.49 115.999 122.114 115.742 121.639C115.464 121.184 115.345 120.611 115.345 119.958V119.78C115.345 119.78 115.345 119.661 115.345 119.641H117.883C117.883 119.641 117.883 119.721 117.883 119.78V119.938C117.883 120.294 117.982 120.611 118.18 120.868C118.379 121.125 118.676 121.303 119.053 121.422C119.449 121.541 119.885 121.6 120.401 121.6C120.738 121.6 121.015 121.6 121.273 121.541C121.531 121.501 121.749 121.442 121.947 121.363C122.145 121.283 122.304 121.204 122.443 121.105C122.582 121.006 122.661 120.888 122.74 120.749C122.8 120.611 122.839 120.453 122.839 120.294C122.839 119.998 122.74 119.74 122.542 119.543C122.344 119.345 122.066 119.187 121.729 119.048C121.372 118.91 120.996 118.791 120.559 118.672C120.123 118.553 119.687 118.435 119.231 118.316C118.775 118.197 118.339 118.039 117.903 117.881C117.467 117.703 117.09 117.485 116.733 117.248C116.396 116.991 116.118 116.674 115.92 116.298C115.722 115.903 115.623 115.448 115.623 114.894C115.623 114.32 115.742 113.806 115.999 113.39C116.237 112.975 116.594 112.619 117.03 112.342C117.467 112.065 117.982 111.867 118.577 111.729C119.152 111.59 119.786 111.531 120.48 111.531C121.114 111.531 121.729 111.59 122.284 111.729C122.859 111.867 123.355 112.065 123.791 112.342C124.227 112.619 124.564 112.995 124.802 113.41C125.04 113.826 125.179 114.36 125.179 114.953V115.151H122.701V115.013C122.701 114.696 122.601 114.439 122.423 114.221C122.245 114.004 121.987 113.826 121.65 113.707C121.313 113.588 120.936 113.529 120.48 113.529C120.004 113.529 119.588 113.568 119.251 113.667C118.914 113.766 118.656 113.885 118.478 114.063C118.299 114.241 118.22 114.439 118.22 114.676C118.22 114.953 118.319 115.171 118.517 115.349C118.716 115.527 118.993 115.685 119.33 115.804C119.687 115.942 120.064 116.041 120.5 116.16C120.936 116.259 121.372 116.377 121.828 116.496C122.284 116.615 122.72 116.773 123.156 116.931C123.593 117.109 123.969 117.307 124.326 117.564C124.663 117.822 124.941 118.138 125.139 118.514C125.337 118.89 125.456 119.345 125.456 119.859C125.456 120.749 125.238 121.481 124.802 122.035C124.366 122.589 123.771 122.985 123.018 123.222C122.264 123.479 121.412 123.598 120.44 123.598L120.421 123.637Z" fill="#2B3078"/>
<path d="M133.287 119.918C132.831 119.918 132.435 119.82 132.078 119.622C131.721 119.424 131.444 119.147 131.245 118.791C131.047 118.435 130.948 118.039 130.948 117.584C130.948 117.129 131.047 116.714 131.245 116.358C131.444 116.002 131.721 115.725 132.078 115.527C132.435 115.329 132.831 115.21 133.287 115.21C133.743 115.21 134.16 115.309 134.517 115.527C134.873 115.744 135.151 116.002 135.349 116.358C135.548 116.714 135.666 117.109 135.666 117.584C135.666 118.059 135.567 118.435 135.349 118.791C135.151 119.147 134.873 119.424 134.517 119.622C134.16 119.82 133.743 119.918 133.287 119.918Z" fill="#2B3078"/>
<path d="M144.608 123.42V113.845H140.841V111.709H150.952V113.845H147.165V123.42H144.608Z" fill="#2B3078"/>
<path d="M152.677 123.42V111.709H159.1C159.973 111.709 160.686 111.867 161.261 112.164C161.836 112.48 162.272 112.896 162.55 113.45C162.827 114.004 162.986 114.637 162.986 115.349C162.986 116.12 162.808 116.793 162.471 117.367C162.134 117.96 161.638 118.395 160.984 118.712L163.383 123.4H160.567L158.505 119.127H155.234V123.4H152.677V123.42ZM155.214 117.149H158.743C159.259 117.149 159.655 116.991 159.933 116.674C160.21 116.358 160.369 115.942 160.369 115.408C160.369 115.072 160.31 114.775 160.191 114.538C160.072 114.3 159.873 114.103 159.636 113.984C159.398 113.865 159.1 113.806 158.743 113.806H155.214V117.169V117.149Z" fill="#2B3078"/>
<path d="M170.559 123.637C169.31 123.637 168.24 123.42 167.348 122.965C166.456 122.53 165.762 121.857 165.286 120.947C164.81 120.057 164.572 118.929 164.572 117.564C164.572 116.199 164.81 115.052 165.286 114.162C165.762 113.272 166.456 112.599 167.348 112.164C168.24 111.729 169.31 111.511 170.559 111.511C171.808 111.511 172.899 111.729 173.791 112.164C174.683 112.599 175.377 113.272 175.853 114.162C176.329 115.052 176.567 116.18 176.567 117.564C176.567 118.949 176.329 120.037 175.853 120.947C175.377 121.857 174.683 122.51 173.791 122.965C172.899 123.4 171.808 123.637 170.559 123.637ZM170.559 121.541C171.115 121.541 171.61 121.461 172.027 121.303C172.443 121.145 172.8 120.908 173.077 120.591C173.355 120.275 173.573 119.879 173.732 119.424C173.87 118.969 173.95 118.435 173.95 117.841V117.307C173.95 116.714 173.87 116.16 173.732 115.705C173.593 115.25 173.375 114.854 173.077 114.538C172.78 114.221 172.443 113.984 172.027 113.826C171.61 113.667 171.115 113.588 170.559 113.588C170.004 113.588 169.529 113.667 169.112 113.826C168.696 113.984 168.339 114.221 168.061 114.538C167.784 114.854 167.566 115.25 167.427 115.705C167.288 116.16 167.209 116.714 167.209 117.307V117.841C167.209 118.435 167.288 118.949 167.427 119.424C167.566 119.879 167.784 120.275 168.061 120.591C168.339 120.908 168.696 121.145 169.112 121.303C169.529 121.461 170.024 121.541 170.559 121.541Z" fill="#2B3078"/>
<path d="M183.724 123.637C182.653 123.637 181.741 123.459 180.968 123.123C180.195 122.787 179.6 122.273 179.203 121.58C178.807 120.888 178.589 120.037 178.589 119.009V111.729H181.146V118.949C181.146 119.78 181.364 120.433 181.82 120.888C182.276 121.343 182.911 121.56 183.744 121.56C184.576 121.56 185.211 121.343 185.667 120.888C186.123 120.433 186.341 119.8 186.341 118.949V111.729H188.898V119.009C188.898 120.037 188.7 120.888 188.284 121.58C187.867 122.273 187.292 122.787 186.519 123.123C185.746 123.459 184.834 123.637 183.744 123.637H183.724Z" fill="#2B3078"/>
<path d="M191.436 123.42V111.709H198.137C198.751 111.709 199.307 111.828 199.802 112.065C200.298 112.302 200.694 112.639 200.972 113.074C201.25 113.509 201.408 114.004 201.408 114.597C201.408 115.072 201.329 115.487 201.15 115.843C200.972 116.199 200.754 116.516 200.456 116.753C200.159 116.991 199.842 117.169 199.465 117.287V117.367C199.901 117.465 200.278 117.624 200.615 117.881C200.952 118.138 201.21 118.455 201.428 118.85C201.646 119.246 201.725 119.701 201.725 120.235C201.725 120.947 201.567 121.541 201.23 122.015C200.912 122.49 200.476 122.846 199.941 123.084C199.406 123.321 198.811 123.44 198.137 123.44H191.416L191.436 123.42ZM193.974 116.457H197.364C197.681 116.457 197.939 116.397 198.137 116.279C198.355 116.16 198.514 116.002 198.613 115.804C198.712 115.606 198.771 115.369 198.771 115.111C198.771 114.676 198.652 114.34 198.395 114.103C198.137 113.865 197.82 113.766 197.423 113.766H193.954V116.457H193.974ZM193.974 121.343H197.641C198.058 121.343 198.414 121.224 198.672 120.987C198.93 120.749 199.069 120.373 199.069 119.879C199.069 119.582 199.009 119.325 198.89 119.107C198.771 118.89 198.613 118.732 198.375 118.613C198.157 118.494 197.859 118.435 197.502 118.435H193.954V121.343H193.974Z" fill="#2B3078"/>
<path d="M203.767 123.42V111.709H206.325V121.244H212.233V123.4H203.767V123.42Z" fill="#2B3078"/>
<path d="M213.878 123.42V111.709H223.256V113.786H216.456V116.397H222.483V118.455H216.456V121.303H223.355V123.4H213.878V123.42Z" fill="#2B3078"/>
<path d="M230.116 123.637C229.441 123.637 228.787 123.578 228.173 123.44C227.558 123.301 227.023 123.084 226.547 122.787C226.071 122.49 225.694 122.114 225.437 121.639C225.159 121.184 225.04 120.611 225.04 119.958V119.78C225.04 119.78 225.04 119.661 225.04 119.641H227.578C227.578 119.641 227.578 119.721 227.578 119.78V119.938C227.578 120.294 227.677 120.611 227.875 120.868C228.073 121.125 228.371 121.303 228.748 121.422C229.144 121.541 229.58 121.6 230.096 121.6C230.433 121.6 230.71 121.6 230.968 121.541C231.226 121.501 231.444 121.442 231.642 121.363C231.84 121.283 231.999 121.204 232.138 121.105C232.276 121.006 232.356 120.888 232.435 120.749C232.495 120.611 232.534 120.453 232.534 120.294C232.534 119.998 232.435 119.74 232.237 119.543C232.039 119.345 231.761 119.187 231.424 119.048C231.067 118.91 230.69 118.791 230.254 118.672C229.818 118.553 229.382 118.435 228.926 118.316C228.47 118.197 228.034 118.039 227.598 117.881C227.162 117.703 226.785 117.485 226.428 117.248C226.091 116.991 225.813 116.674 225.615 116.298C225.417 115.903 225.318 115.448 225.318 114.894C225.318 114.32 225.437 113.806 225.694 113.39C225.932 112.975 226.289 112.619 226.725 112.342C227.161 112.065 227.677 111.867 228.272 111.729C228.847 111.59 229.481 111.531 230.175 111.531C230.809 111.531 231.424 111.59 231.979 111.729C232.554 111.867 233.05 112.065 233.486 112.342C233.922 112.619 234.259 112.995 234.497 113.41C234.735 113.826 234.874 114.36 234.874 114.953V115.151H232.395V115.013C232.395 114.696 232.296 114.439 232.118 114.221C231.939 114.004 231.682 113.826 231.345 113.707C231.008 113.588 230.631 113.529 230.175 113.529C229.699 113.529 229.283 113.568 228.946 113.667C228.609 113.766 228.351 113.885 228.173 114.063C227.994 114.241 227.915 114.439 227.915 114.676C227.915 114.953 228.014 115.171 228.212 115.349C228.411 115.527 228.688 115.685 229.025 115.804C229.382 115.942 229.759 116.041 230.195 116.16C230.631 116.259 231.067 116.377 231.523 116.496C231.979 116.615 232.415 116.773 232.851 116.931C233.288 117.109 233.664 117.307 234.021 117.564C234.358 117.822 234.636 118.138 234.834 118.514C235.032 118.89 235.151 119.345 235.151 119.859C235.151 120.749 234.933 121.481 234.497 122.035C234.061 122.589 233.466 122.985 232.713 123.222C231.959 123.479 231.107 123.598 230.135 123.598L230.116 123.637Z" fill="#2B3078"/>
<path d="M237.154 123.42V111.709H239.711V116.338H244.905V111.709H247.463V123.42H244.905V118.514H239.711V123.42H237.154Z" fill="#2B3078"/>
<path d="M255.512 123.637C254.263 123.637 253.193 123.42 252.3 122.965C251.408 122.53 250.714 121.857 250.239 120.947C249.763 120.057 249.525 118.929 249.525 117.564C249.525 116.199 249.763 115.052 250.239 114.162C250.714 113.272 251.408 112.599 252.3 112.164C253.193 111.729 254.263 111.511 255.512 111.511C256.761 111.511 257.852 111.729 258.744 112.164C259.636 112.599 260.33 113.272 260.806 114.162C261.281 115.052 261.519 116.18 261.519 117.564C261.519 118.949 261.281 120.037 260.806 120.947C260.33 121.857 259.636 122.51 258.744 122.965C257.852 123.4 256.761 123.637 255.512 123.637ZM255.512 121.541C256.067 121.541 256.563 121.461 256.979 121.303C257.396 121.145 257.752 120.908 258.03 120.591C258.307 120.275 258.526 119.879 258.684 119.424C258.823 118.969 258.902 118.435 258.902 117.841V117.307C258.902 116.714 258.823 116.16 258.684 115.705C258.545 115.25 258.327 114.854 258.03 114.538C257.733 114.221 257.396 113.984 256.979 113.826C256.563 113.667 256.067 113.588 255.512 113.588C254.957 113.588 254.481 113.667 254.065 113.826C253.648 113.984 253.292 114.221 253.014 114.538C252.737 114.854 252.518 115.25 252.38 115.705C252.241 116.16 252.162 116.714 252.162 117.307V117.841C252.162 118.435 252.241 118.949 252.38 119.424C252.518 119.879 252.737 120.275 253.014 120.591C253.292 120.908 253.648 121.145 254.065 121.303C254.481 121.461 254.977 121.541 255.512 121.541Z" fill="#2B3078"/>
<path d="M269.073 123.637C267.824 123.637 266.753 123.42 265.861 122.965C264.969 122.53 264.275 121.857 263.799 120.947C263.323 120.057 263.085 118.929 263.085 117.564C263.085 116.199 263.323 115.052 263.799 114.162C264.275 113.272 264.969 112.599 265.861 112.164C266.753 111.729 267.824 111.511 269.073 111.511C270.322 111.511 271.412 111.729 272.304 112.164C273.197 112.599 273.89 113.272 274.366 114.162C274.842 115.052 275.08 116.18 275.08 117.564C275.08 118.949 274.842 120.037 274.366 120.947C273.89 121.857 273.197 122.51 272.304 122.965C271.412 123.4 270.322 123.637 269.073 123.637ZM269.073 121.541C269.628 121.541 270.124 121.461 270.54 121.303C270.956 121.145 271.313 120.908 271.591 120.591C271.868 120.275 272.086 119.879 272.245 119.424C272.384 118.969 272.463 118.435 272.463 117.841V117.307C272.463 116.714 272.384 116.16 272.245 115.705C272.106 115.25 271.888 114.854 271.591 114.538C271.293 114.221 270.956 113.984 270.54 113.826C270.124 113.667 269.628 113.588 269.073 113.588C268.518 113.588 268.042 113.667 267.626 113.826C267.209 113.984 266.852 114.221 266.575 114.538C266.297 114.854 266.079 115.25 265.94 115.705C265.802 116.16 265.722 116.714 265.722 117.307V117.841C265.722 118.435 265.802 118.949 265.94 119.424C266.079 119.879 266.297 120.275 266.575 120.591C266.852 120.908 267.209 121.145 267.626 121.303C268.042 121.461 268.537 121.541 269.073 121.541Z" fill="#2B3078"/>
<path d="M279.6 123.42V113.845H275.833V111.709H285.944V113.845H282.158V123.42H279.6Z" fill="#2B3078"/>
<path d="M287.669 123.42V111.709H290.227V123.42H287.669Z" fill="#2B3078"/>
<path d="M292.824 123.42V111.709H295.163L299.882 118.019C299.882 118.019 300.04 118.217 300.139 118.356C300.239 118.494 300.338 118.633 300.437 118.771C300.536 118.91 300.595 119.008 300.615 119.088H300.695V111.709H303.113V123.42H300.774L295.956 116.951C295.837 116.793 295.718 116.615 295.599 116.417C295.48 116.219 295.381 116.081 295.322 115.982H295.243V123.42H292.824Z" fill="#2B3078"/>
<path d="M311.044 123.637C309.2 123.637 307.772 123.143 306.781 122.154C305.79 121.165 305.294 119.642 305.294 117.564C305.294 116.18 305.532 115.052 306.008 114.162C306.484 113.272 307.178 112.599 308.09 112.164C309.002 111.729 310.092 111.511 311.381 111.511C312.134 111.511 312.868 111.59 313.542 111.768C314.216 111.946 314.81 112.203 315.326 112.56C315.841 112.916 316.258 113.351 316.535 113.885C316.833 114.419 316.971 115.032 316.971 115.764H314.394C314.394 115.408 314.315 115.092 314.156 114.834C313.998 114.558 313.78 114.34 313.522 114.142C313.244 113.964 312.927 113.826 312.59 113.727C312.233 113.628 311.856 113.588 311.48 113.588C310.885 113.588 310.37 113.667 309.933 113.826C309.497 113.984 309.121 114.221 308.823 114.518C308.526 114.815 308.308 115.23 308.169 115.685C308.03 116.14 307.951 116.694 307.951 117.307V117.822C307.951 118.672 308.07 119.365 308.328 119.918C308.585 120.472 308.962 120.868 309.458 121.145C309.953 121.422 310.588 121.541 311.321 121.541C311.936 121.541 312.471 121.442 312.947 121.264C313.423 121.086 313.799 120.809 314.057 120.453C314.315 120.096 314.454 119.661 314.454 119.147V119.028H310.944V117.09H316.971V123.42H315.306L315.088 122.154C314.751 122.49 314.374 122.747 313.978 122.965C313.581 123.182 313.145 123.341 312.669 123.459C312.193 123.558 311.658 123.618 311.063 123.618L311.044 123.637Z" fill="#2B3078"/>
<path d="M58.9415 146.802L55.8685 135.091H58.5648L60.2698 142.074C60.3095 142.173 60.3293 142.331 60.3689 142.529C60.4086 142.727 60.4284 142.945 60.4681 143.143C60.5077 143.36 60.5275 143.558 60.5474 143.716H60.6267C60.6465 143.598 60.6663 143.439 60.6861 143.281C60.6861 143.123 60.7258 142.965 60.7456 142.806C60.7654 142.648 60.8051 142.51 60.8249 142.371C60.8448 142.233 60.8646 142.134 60.8844 142.055L62.4704 135.071H65.5038L67.1295 142.055C67.1691 142.173 67.1889 142.312 67.2286 142.51C67.2682 142.707 67.2881 142.905 67.3277 143.123C67.3674 143.34 67.3872 143.538 67.407 143.696H67.4863C67.5061 143.578 67.526 143.439 67.5656 143.281C67.5855 143.123 67.6251 142.984 67.6449 142.826C67.6647 142.668 67.7044 142.529 67.7441 142.391C67.7837 142.252 67.8035 142.134 67.8234 142.035L69.5085 135.052H71.9471L68.8543 146.763H65.9399L64.2151 139.562C64.1754 139.404 64.1358 139.226 64.0962 139.008C64.0565 138.79 64.0168 138.593 63.9772 138.375C63.9375 138.177 63.9177 137.979 63.8979 137.821H63.8384C63.8186 137.979 63.7988 138.177 63.7591 138.375C63.7393 138.593 63.6996 138.81 63.66 139.008C63.6203 139.206 63.5807 139.384 63.541 139.542L61.836 146.743H58.8424L58.9415 146.802Z" fill="#2B3078"/>
<path d="M73.4736 146.802V135.091H82.8511V137.168H76.051V139.78H82.0779V141.837H76.051V144.686H82.9503V146.782H73.4736V146.802Z" fill="#2B3078"/>
<path d="M85.1509 146.802V135.091H87.7084V144.626H93.6164V146.782H85.1509V146.802Z" fill="#2B3078"/>
<path d="M95.262 146.802V135.091H100.04C101.269 135.091 102.3 135.309 103.153 135.724C104.005 136.14 104.659 136.793 105.135 137.643C105.591 138.494 105.829 139.602 105.829 140.947C105.829 142.292 105.591 143.38 105.135 144.231C104.679 145.101 104.025 145.734 103.153 146.149C102.3 146.565 101.269 146.782 100.04 146.782H95.262V146.802ZM97.8195 144.705H100.04C100.555 144.705 101.011 144.626 101.408 144.488C101.804 144.349 102.141 144.112 102.399 143.835C102.657 143.558 102.855 143.182 102.994 142.747C103.133 142.312 103.192 141.797 103.192 141.224V140.709C103.192 140.136 103.133 139.621 102.994 139.186C102.855 138.751 102.657 138.375 102.399 138.098C102.141 137.801 101.804 137.584 101.408 137.426C101.011 137.267 100.555 137.188 100.04 137.188H97.8195V144.705Z" fill="#2B3078"/>
<path d="M107.891 146.802V135.091H110.448V146.802H107.891Z" fill="#2B3078"/>
<path d="M113.046 146.802V135.091H115.385L120.103 141.402C120.103 141.402 120.262 141.6 120.361 141.738C120.46 141.876 120.559 142.015 120.659 142.153C120.758 142.292 120.817 142.391 120.837 142.47H120.916V135.091H123.335V146.802H120.996L116.178 140.333C116.059 140.175 115.94 139.997 115.821 139.799C115.702 139.602 115.603 139.463 115.544 139.364H115.464V146.802H113.046Z" fill="#2B3078"/>
<path d="M131.265 147C129.421 147 127.994 146.505 127.003 145.516C126.011 144.527 125.516 143.004 125.516 140.927C125.516 139.542 125.754 138.415 126.229 137.524C126.705 136.634 127.399 135.962 128.311 135.526C129.223 135.091 130.314 134.874 131.602 134.874C132.356 134.874 133.089 134.953 133.763 135.131C134.437 135.309 135.032 135.566 135.547 135.922C136.063 136.278 136.479 136.713 136.757 137.247C137.054 137.782 137.193 138.395 137.193 139.127H134.616C134.616 138.771 134.536 138.454 134.378 138.197C134.219 137.92 134.001 137.702 133.743 137.505C133.466 137.327 133.149 137.188 132.812 137.089C132.455 136.99 132.078 136.951 131.701 136.951C131.107 136.951 130.591 137.03 130.155 137.188C129.719 137.346 129.342 137.584 129.045 137.881C128.747 138.177 128.529 138.593 128.39 139.048C128.252 139.503 128.172 140.057 128.172 140.67V141.184C128.172 142.035 128.291 142.727 128.549 143.281C128.807 143.835 129.183 144.231 129.679 144.507C130.175 144.784 130.809 144.903 131.543 144.903C132.157 144.903 132.693 144.804 133.168 144.626C133.644 144.448 134.021 144.171 134.279 143.815C134.536 143.459 134.675 143.024 134.675 142.51V142.391H131.166V140.452H137.193V146.782H135.528L135.31 145.516C134.973 145.853 134.596 146.11 134.199 146.327C133.803 146.545 133.367 146.703 132.891 146.822C132.415 146.921 131.88 146.98 131.285 146.98L131.265 147Z" fill="#2B3078"/>
<path d="M145.46 143.281C145.004 143.281 144.608 143.182 144.251 142.984C143.894 142.786 143.616 142.51 143.418 142.153C143.22 141.797 143.121 141.402 143.121 140.947C143.121 140.492 143.22 140.076 143.418 139.72C143.616 139.364 143.894 139.087 144.251 138.889C144.608 138.692 145.004 138.573 145.46 138.573C145.916 138.573 146.333 138.672 146.689 138.889C147.046 139.107 147.324 139.364 147.522 139.72C147.72 140.076 147.839 140.472 147.839 140.947C147.839 141.422 147.74 141.797 147.522 142.153C147.324 142.51 147.046 142.786 146.689 142.984C146.333 143.182 145.916 143.281 145.46 143.281Z" fill="#2B3078"/>
<path d="M159.14 147C157.911 147 156.88 146.782 156.008 146.367C155.135 145.952 154.481 145.279 154.025 144.389C153.569 143.499 153.351 142.351 153.351 140.967C153.351 138.929 153.847 137.406 154.858 136.397C155.869 135.388 157.296 134.913 159.12 134.913C160.131 134.913 161.023 135.091 161.816 135.428C162.61 135.764 163.244 136.278 163.7 136.971C164.156 137.643 164.394 138.514 164.394 139.542H161.836C161.836 138.988 161.717 138.533 161.499 138.157C161.281 137.782 160.964 137.505 160.567 137.287C160.171 137.089 159.695 136.99 159.16 136.99C158.426 136.99 157.832 137.129 157.356 137.426C156.88 137.702 156.543 138.118 156.305 138.672C156.087 139.226 155.968 139.898 155.968 140.69V141.224C155.968 142.035 156.087 142.727 156.305 143.281C156.523 143.835 156.88 144.25 157.336 144.527C157.792 144.804 158.387 144.943 159.12 144.943C159.695 144.943 160.191 144.844 160.607 144.646C161.023 144.448 161.36 144.171 161.579 143.795C161.797 143.419 161.916 142.964 161.916 142.411H164.374C164.374 143.439 164.156 144.31 163.7 144.982C163.244 145.655 162.629 146.169 161.836 146.505C161.043 146.842 160.131 147 159.1 147H159.14Z" fill="#2B3078"/>
<path d="M171.888 147C170.639 147 169.568 146.782 168.676 146.327C167.784 145.892 167.09 145.22 166.614 144.31C166.138 143.419 165.901 142.292 165.901 140.927C165.901 139.562 166.138 138.415 166.614 137.524C167.09 136.634 167.784 135.962 168.676 135.526C169.568 135.091 170.639 134.874 171.888 134.874C173.137 134.874 174.227 135.091 175.119 135.526C176.012 135.962 176.705 136.634 177.181 137.524C177.657 138.415 177.895 139.542 177.895 140.927C177.895 142.312 177.657 143.4 177.181 144.31C176.705 145.22 176.012 145.872 175.119 146.327C174.227 146.763 173.137 147 171.888 147ZM171.888 144.923C172.443 144.923 172.939 144.844 173.355 144.686C173.771 144.527 174.128 144.29 174.406 143.973C174.683 143.657 174.901 143.261 175.06 142.806C175.199 142.351 175.278 141.817 175.278 141.224V140.69C175.278 140.096 175.199 139.542 175.06 139.087C174.921 138.632 174.703 138.237 174.406 137.92C174.108 137.604 173.771 137.366 173.355 137.208C172.939 137.05 172.443 136.971 171.888 136.971C171.333 136.971 170.857 137.05 170.441 137.208C170.024 137.366 169.667 137.604 169.39 137.92C169.112 138.237 168.894 138.632 168.755 139.087C168.617 139.542 168.537 140.096 168.537 140.69V141.224C168.537 141.817 168.617 142.331 168.755 142.806C168.894 143.261 169.112 143.657 169.39 143.973C169.667 144.29 170.024 144.527 170.441 144.686C170.857 144.844 171.353 144.923 171.888 144.923Z" fill="#2B3078"/>
<path d="M179.977 146.802V135.091H182.316L187.035 141.402C187.035 141.402 187.193 141.6 187.292 141.738C187.391 141.876 187.491 142.015 187.59 142.153C187.689 142.292 187.748 142.391 187.768 142.47H187.847V135.091H190.266V146.802H187.927L183.109 140.333C182.99 140.175 182.871 139.997 182.752 139.799C182.633 139.602 182.534 139.463 182.475 139.364H182.395V146.802H179.977Z" fill="#2B3078"/>
<path d="M197.423 147C196.749 147 196.095 146.941 195.48 146.802C194.866 146.664 194.33 146.446 193.855 146.149C193.379 145.853 193.002 145.477 192.744 145.002C192.467 144.547 192.348 143.973 192.348 143.321V143.143C192.348 143.143 192.348 143.024 192.348 143.004H194.885C194.885 143.004 194.885 143.083 194.885 143.143V143.301C194.885 143.657 194.985 143.973 195.183 144.231C195.381 144.488 195.678 144.666 196.055 144.784C196.452 144.903 196.888 144.962 197.403 144.962C197.74 144.962 198.018 144.962 198.276 144.903C198.533 144.864 198.751 144.804 198.95 144.725C199.148 144.646 199.307 144.567 199.445 144.468C199.584 144.369 199.663 144.25 199.743 144.112C199.802 143.973 199.842 143.815 199.842 143.657C199.842 143.36 199.743 143.103 199.544 142.905C199.346 142.707 199.069 142.549 198.732 142.411C198.375 142.272 197.998 142.153 197.562 142.035C197.126 141.916 196.69 141.797 196.234 141.679C195.778 141.56 195.341 141.402 194.905 141.243C194.469 141.065 194.092 140.848 193.736 140.61C193.399 140.353 193.121 140.037 192.923 139.661C192.724 139.265 192.625 138.81 192.625 138.256C192.625 137.683 192.744 137.168 193.002 136.753C193.24 136.338 193.597 135.981 194.033 135.704C194.469 135.428 194.985 135.23 195.579 135.091C196.154 134.953 196.789 134.893 197.483 134.893C198.117 134.893 198.732 134.953 199.287 135.091C199.862 135.23 200.357 135.428 200.793 135.704C201.23 135.981 201.567 136.357 201.805 136.773C202.042 137.188 202.181 137.722 202.181 138.316V138.514H199.703V138.375C199.703 138.059 199.604 137.801 199.426 137.584C199.247 137.366 198.989 137.188 198.652 137.069C198.315 136.951 197.939 136.891 197.483 136.891C197.007 136.891 196.59 136.931 196.253 137.03C195.916 137.129 195.659 137.247 195.48 137.426C195.302 137.604 195.222 137.801 195.222 138.039C195.222 138.316 195.322 138.533 195.52 138.711C195.718 138.889 195.996 139.048 196.333 139.166C196.69 139.305 197.066 139.404 197.502 139.522C197.939 139.621 198.375 139.74 198.831 139.859C199.287 139.977 199.723 140.136 200.159 140.294C200.595 140.472 200.972 140.67 201.329 140.927C201.666 141.184 201.943 141.501 202.142 141.876C202.34 142.252 202.459 142.707 202.459 143.222C202.459 144.112 202.241 144.844 201.805 145.398C201.368 145.952 200.774 146.347 200.02 146.585C199.267 146.842 198.414 146.96 197.443 146.96L197.423 147Z" fill="#2B3078"/>
<path d="M209.537 147C208.466 147 207.554 146.822 206.781 146.486C206.008 146.149 205.413 145.635 205.016 144.943C204.62 144.25 204.402 143.4 204.402 142.371V135.091H206.959V142.312C206.959 143.143 207.177 143.795 207.633 144.25C208.089 144.705 208.724 144.923 209.556 144.923C210.389 144.923 211.023 144.705 211.479 144.25C211.935 143.795 212.154 143.162 212.154 142.312V135.091H214.711V142.371C214.711 143.4 214.513 144.25 214.096 144.943C213.68 145.635 213.105 146.149 212.332 146.486C211.559 146.822 210.647 147 209.556 147H209.537Z" fill="#2B3078"/>
<path d="M217.249 146.802V135.091H219.806V144.626H225.714V146.782H217.249V146.802Z" fill="#2B3078"/>
<path d="M228.648 146.802V137.228H224.882V135.091H234.993V137.228H231.206V146.802H228.648Z" fill="#2B3078"/>
<path d="M236.718 146.802V135.091H239.275V146.802H236.718Z" fill="#2B3078"/>
<path d="M241.852 146.802V135.091H244.192L248.91 141.402C248.91 141.402 249.069 141.6 249.168 141.738C249.267 141.876 249.366 142.015 249.465 142.153C249.564 142.292 249.624 142.391 249.644 142.47H249.723V135.091H252.142V146.802H249.802L244.985 140.333C244.866 140.175 244.747 139.997 244.628 139.799C244.509 139.602 244.41 139.463 244.35 139.364H244.271V146.802H241.852Z" fill="#2B3078"/>
<path d="M260.072 147C258.228 147 256.801 146.505 255.81 145.516C254.818 144.527 254.323 143.004 254.323 140.927C254.323 139.542 254.561 138.415 255.036 137.524C255.512 136.634 256.206 135.962 257.118 135.526C258.03 135.091 259.12 134.874 260.409 134.874C261.162 134.874 261.896 134.953 262.57 135.131C263.244 135.309 263.839 135.566 264.354 135.922C264.87 136.278 265.286 136.713 265.564 137.247C265.861 137.782 266 138.395 266 139.127H263.423C263.423 138.771 263.343 138.454 263.185 138.197C263.026 137.92 262.808 137.702 262.55 137.505C262.273 137.327 261.955 137.188 261.618 137.089C261.262 136.99 260.885 136.951 260.508 136.951C259.913 136.951 259.398 137.03 258.962 137.188C258.526 137.346 258.149 137.584 257.852 137.881C257.554 138.177 257.336 138.593 257.197 139.048C257.059 139.503 256.979 140.057 256.979 140.67V141.184C256.979 142.035 257.098 142.727 257.356 143.281C257.614 143.835 257.99 144.231 258.486 144.507C258.982 144.784 259.616 144.903 260.35 144.903C260.964 144.903 261.499 144.804 261.975 144.626C262.451 144.448 262.828 144.171 263.086 143.815C263.343 143.459 263.482 143.024 263.482 142.51V142.391H259.973V140.452H266V146.782H264.335L264.116 145.516C263.779 145.853 263.403 146.11 263.006 146.327C262.61 146.545 262.174 146.703 261.698 146.822C261.222 146.921 260.687 146.98 260.092 146.98L260.072 147Z" fill="#2B3078"/>
<path d="M231.186 62.887L224.763 88.3068H245.996L256.959 44.9843L255.69 43.9358C245.361 58.0008 231.186 62.887 231.186 62.887Z" fill="#2B3078"/>
<path d="M79.7385 42.9467C79.7385 42.9467 90.702 7.99191 52.28 7.99191C27.4386 7.99191 9.06026 21.4437 2.02218 49.1978C-4.99608 76.952 6.54241 90.5224 31.3839 90.5224C69.8257 90.5224 76.5069 55.6665 76.5465 55.5676H53.8264C53.8066 55.6665 51.0905 73.8857 35.6067 73.8857C25.3172 73.8857 20.3014 66.784 24.7621 49.1978C29.2229 31.6116 37.3514 24.6286 48.077 24.6286C63.5806 24.6286 57.0382 42.9467 57.0382 42.9467H79.7583H79.7385Z" fill="#2B3078"/>
<path d="M126.844 68.2677L128.153 10.2273H97.7996L78.0334 88.287H99.2666L112.431 36.2802L111.578 88.287H131.959L157.336 36.2802L144.172 88.287H165.405L185.171 10.2273H154.917L126.844 68.2677Z" fill="#2B3078"/>
<path d="M321.511 10.2273H278.728L258.962 88.3068H280.195L286.519 63.3024H308.07C324.109 63.3024 336.024 52.2838 339.91 36.933C343.339 23.3823 339.136 10.2273 321.511 10.2273ZM304.105 46.6657H290.722L295.738 26.864H309.12C317.507 26.864 320.124 30.3654 318.458 36.933C316.793 43.5006 312.491 46.6855 304.105 46.6855V46.6657Z" fill="#2B3078"/>
<path d="M211.935 39.564L219.37 10.2273H198.137L178.371 88.3068H199.604L207.613 56.6359C207.772 56.6359 207.99 56.6359 208.208 56.6556C209.318 50.998 209.774 45.3206 212.411 39.6629C212.253 39.6431 212.054 39.6036 211.916 39.5838L211.935 39.564Z" fill="#2B3078"/>
<path d="M259.16 8.05126L253.708 12.1066L238.343 23.5406L234.219 26.6068L237.51 26.8244L247.344 27.4772C246.967 27.8926 246.571 28.308 246.135 28.7234C246.135 28.7234 242.764 32.0468 238.363 34.5591C237.471 35.0735 235.766 35.9439 235.012 36.2604C234.814 36.3395 234.636 36.4384 234.437 36.5176C234.041 36.6956 233.625 36.8736 233.228 37.0319C232.435 37.3484 231.622 37.6649 230.869 37.9221C228.926 38.5947 227.082 39.0694 225.357 39.4057C224.663 39.5442 223.989 39.6431 223.335 39.742C221.372 40.019 219.608 40.1179 218.042 40.1179C215.504 40.1179 213.601 39.8409 212.431 39.6431C209.794 45.3008 209.338 50.9782 208.228 56.6358C208.684 56.6358 209.259 56.6754 209.973 56.6754C211.479 56.6754 213.502 56.6161 215.901 56.3391C216.694 56.2402 217.546 56.1215 218.418 55.983C221.947 55.4094 226.031 54.3807 230.393 52.5608C231.662 52.0266 232.951 51.4332 234.279 50.7606C234.279 50.7606 237.253 49.2374 240.127 47.279C248.573 41.5224 254.501 33.3327 254.501 33.3327C255.016 32.6205 255.572 31.7897 256.166 30.8797L257.376 31.8886L260.587 34.5789L263.938 37.3484L265.96 39.0299L267.645 22.6899L269.152 8.05126L269.985 0.0197754L259.16 8.07105V8.05126Z" fill="#2B3078"/>
</g>
<defs>
<clipPath id="clip0_3_1317">
<rect width="341" height="147" fill="white"/>
</clipPath>
</defs>
</svg>
