<svg width="375" height="163" viewBox="0 0 375 163" fill="none" xmlns="http://www.w3.org/2000/svg">
<path d="M22.9918 136.05V123.15H27.2618L29.1018 129.75C29.1718 129.99 29.2518 130.27 29.3218 130.6C29.3918 130.93 29.4718 131.25 29.5618 131.57C29.6418 131.89 29.7118 132.18 29.7618 132.43H29.9118C29.9418 132.22 29.9818 131.96 30.0418 131.67C30.1018 131.38 30.1718 131.06 30.2518 130.72C30.3218 130.38 30.4118 130.06 30.4918 129.74L32.3318 123.16H36.5218V136.06H33.7618V129.95C33.7618 129.39 33.7618 128.82 33.7618 128.25C33.7618 127.68 33.7818 127.18 33.8018 126.76C33.8218 126.33 33.8318 126.06 33.8318 125.93H33.6818C33.6518 126.07 33.6018 126.32 33.5018 126.69C33.4018 127.06 33.3118 127.45 33.2018 127.86C33.0918 128.27 33.0018 128.63 32.9118 128.93L30.9018 136.06H28.4618L26.4318 128.95C26.3618 128.69 26.2718 128.38 26.1818 128.02C26.0918 127.66 26.0018 127.29 25.9218 126.91C25.8418 126.53 25.7618 126.2 25.6818 125.92H25.5318C25.5418 126.26 25.5518 126.66 25.5718 127.13C25.5818 127.6 25.5918 128.08 25.6118 128.58C25.6218 129.08 25.6318 129.53 25.6318 129.94V136.05H23.0018H22.9918Z" fill="#1D4C98"/>
<path d="M39.3918 136.05V123.15H49.6918V125.44H42.2118V128.32H48.8318V130.59H42.2118V133.73H49.8018V136.04H39.3918V136.05Z" fill="#1D4C98"/>
<path d="M58.0019 136.28C56.6619 136.28 55.5119 136.04 54.5619 135.57C53.6119 135.1 52.8819 134.37 52.3919 133.38C51.9019 132.39 51.6519 131.13 51.6519 129.6C51.6519 127.34 52.2019 125.67 53.3119 124.57C54.4219 123.47 55.9819 122.92 58.0019 122.92C59.1019 122.92 60.0919 123.11 60.9719 123.48C61.8519 123.86 62.5419 124.42 63.0519 125.17C63.5619 125.92 63.8119 126.87 63.8119 128.01H60.9919C60.9919 127.41 60.8719 126.9 60.6219 126.49C60.3719 126.08 60.0319 125.76 59.5919 125.54C59.1519 125.32 58.6319 125.21 58.0419 125.21C57.2419 125.21 56.5819 125.37 56.0619 125.68C55.5419 125.99 55.1619 126.45 54.9119 127.06C54.6719 127.67 54.5419 128.41 54.5419 129.29V129.87C54.5419 130.77 54.6719 131.53 54.9219 132.14C55.1719 132.75 55.5519 133.21 56.0619 133.51C56.5719 133.81 57.2219 133.97 58.0219 133.97C58.6519 133.97 59.1919 133.86 59.6619 133.65C60.1219 133.44 60.4819 133.12 60.7319 132.71C60.9819 132.3 61.1119 131.79 61.1119 131.19H63.8219C63.8219 132.33 63.5719 133.28 63.0819 134.03C62.5919 134.78 61.9019 135.34 61.0219 135.71C60.1419 136.08 59.1419 136.27 58.0119 136.27L58.0019 136.28Z" fill="#1D4C98"/>
<path d="M66.0118 136.05V123.15H68.8118V128.26H74.5318V123.15H77.3318V136.05H74.5318V130.64H68.8118V136.05H66.0118Z" fill="#1D4C98"/>
<path d="M78.8618 136.05L83.8218 123.15H87.2818L92.2418 136.05H89.2118L88.2918 133.51H82.6718L81.7518 136.05H78.8518H78.8618ZM83.4918 131.26H87.4918L86.3418 128.08C86.2918 127.94 86.2318 127.78 86.1618 127.58C86.0918 127.39 86.0218 127.17 85.9418 126.93C85.8618 126.69 85.7918 126.46 85.7218 126.23C85.6518 126 85.5918 125.79 85.5218 125.6H85.4118C85.3518 125.84 85.2718 126.12 85.1718 126.44C85.0718 126.76 84.9718 127.07 84.8718 127.36C84.7718 127.65 84.6918 127.89 84.6218 128.08L83.4718 131.26H83.4918Z" fill="#1D4C98"/>
<path d="M93.7919 136.05V123.15H96.3719L101.562 130.11C101.632 130.2 101.732 130.32 101.842 130.48C101.952 130.64 102.062 130.79 102.162 130.94C102.262 131.09 102.332 131.21 102.372 131.3H102.462V123.16H105.112V136.06H102.532L97.2319 128.93C97.1019 128.75 96.9719 128.56 96.8319 128.35C96.6919 128.14 96.5919 127.97 96.5319 127.86H96.4419V136.06H93.7919V136.05Z" fill="#1D4C98"/>
<path d="M107.972 136.05V123.15H110.772V136.05H107.972Z" fill="#1D4C98"/>
<path d="M119.402 136.28C118.062 136.28 116.912 136.04 115.962 135.57C115.012 135.1 114.282 134.37 113.792 133.38C113.302 132.39 113.052 131.13 113.052 129.6C113.052 127.34 113.602 125.67 114.712 124.57C115.822 123.47 117.382 122.92 119.402 122.92C120.502 122.92 121.492 123.11 122.372 123.48C123.252 123.86 123.942 124.42 124.452 125.17C124.962 125.92 125.212 126.87 125.212 128.01H122.392C122.392 127.41 122.272 126.9 122.022 126.49C121.772 126.08 121.432 125.76 120.992 125.54C120.552 125.32 120.032 125.21 119.442 125.21C118.642 125.21 117.982 125.37 117.462 125.68C116.942 125.99 116.562 126.45 116.312 127.06C116.072 127.67 115.942 128.41 115.942 129.29V129.87C115.942 130.77 116.072 131.53 116.322 132.14C116.572 132.75 116.952 133.21 117.462 133.51C117.972 133.81 118.622 133.97 119.422 133.97C120.052 133.97 120.592 133.86 121.062 133.65C121.522 133.44 121.882 133.12 122.132 132.71C122.382 132.3 122.512 131.79 122.512 131.19H125.222C125.222 132.33 124.972 133.28 124.482 134.03C123.992 134.78 123.302 135.34 122.422 135.71C121.542 136.08 120.542 136.27 119.412 136.27L119.402 136.28Z" fill="#1D4C98"/>
<path d="M132.432 136.28C131.682 136.28 130.962 136.2 130.292 136.05C129.612 135.9 129.012 135.66 128.502 135.33C127.992 135 127.572 134.58 127.282 134.07C126.982 133.56 126.842 132.94 126.842 132.22V132.02C126.842 131.95 126.842 131.9 126.862 131.86H129.642C129.642 131.86 129.622 131.95 129.622 132.01V132.18C129.622 132.58 129.732 132.92 129.952 133.2C130.172 133.48 130.492 133.68 130.922 133.82C131.352 133.96 131.842 134.03 132.402 134.03C132.762 134.03 133.092 134.01 133.372 133.96C133.652 133.91 133.902 133.85 134.122 133.77C134.342 133.69 134.522 133.59 134.672 133.48C134.822 133.37 134.922 133.24 134.992 133.08C135.062 132.93 135.092 132.76 135.092 132.57C135.092 132.23 134.982 131.96 134.762 131.74C134.542 131.53 134.242 131.34 133.862 131.19C133.482 131.04 133.052 130.9 132.572 130.78C132.092 130.65 131.602 130.53 131.102 130.39C130.602 130.26 130.112 130.1 129.632 129.9C129.152 129.71 128.732 129.47 128.352 129.2C127.972 128.93 127.672 128.57 127.452 128.15C127.222 127.72 127.112 127.21 127.112 126.61C127.112 125.97 127.242 125.42 127.512 124.96C127.782 124.5 128.162 124.11 128.652 123.81C129.142 123.51 129.702 123.29 130.342 123.14C130.982 122.99 131.672 122.92 132.432 122.92C133.132 122.92 133.802 122.99 134.422 123.14C135.042 123.29 135.602 123.51 136.072 123.83C136.542 124.15 136.922 124.54 137.192 125.01C137.462 125.49 137.592 126.05 137.592 126.7V126.92H134.862V126.77C134.862 126.43 134.762 126.14 134.562 125.91C134.362 125.68 134.082 125.48 133.712 125.35C133.352 125.21 132.922 125.14 132.432 125.14C131.902 125.14 131.462 125.19 131.092 125.29C130.722 125.39 130.442 125.54 130.242 125.73C130.052 125.92 129.952 126.15 129.952 126.42C129.952 126.72 130.062 126.97 130.282 127.16C130.502 127.35 130.802 127.52 131.182 127.67C131.562 127.82 131.992 127.94 132.472 128.06C132.942 128.17 133.432 128.3 133.942 128.44C134.442 128.58 134.932 128.74 135.412 128.93C135.892 129.12 136.312 129.35 136.692 129.64C137.072 129.93 137.372 130.27 137.592 130.68C137.812 131.09 137.932 131.59 137.932 132.17C137.932 133.16 137.692 133.96 137.222 134.56C136.742 135.16 136.092 135.6 135.262 135.88C134.432 136.15 133.492 136.29 132.422 136.29L132.432 136.28Z" fill="#1D4C98"/>
<path d="M146.562 132.18C146.062 132.18 145.612 132.07 145.232 131.85C144.842 131.63 144.542 131.33 144.322 130.94C144.102 130.55 143.992 130.11 143.992 129.61C143.992 129.11 144.102 128.65 144.322 128.26C144.542 127.87 144.842 127.56 145.232 127.34C145.622 127.11 146.062 127 146.562 127C147.062 127 147.522 127.11 147.912 127.34C148.302 127.56 148.612 127.87 148.832 128.26C149.052 128.65 149.172 129.1 149.172 129.61C149.172 130.12 149.062 130.56 148.832 130.94C148.602 131.33 148.302 131.63 147.912 131.85C147.522 132.07 147.072 132.18 146.562 132.18Z" fill="#1D4C98"/>
<path d="M159.012 136.05V125.5H154.872V123.15H165.982V125.5H161.832V136.05H159.012Z" fill="#1D4C98"/>
<path d="M167.882 136.05V123.15H174.952C175.902 123.15 176.692 123.32 177.332 123.66C177.962 124 178.442 124.47 178.752 125.08C179.062 125.69 179.222 126.39 179.222 127.18C179.222 128.02 179.032 128.76 178.662 129.41C178.282 130.06 177.742 130.55 177.022 130.89L179.652 136.06H176.552L174.282 131.36H170.692V136.06H167.892L167.882 136.05ZM170.682 129.13H174.572C175.132 129.13 175.572 128.96 175.892 128.61C176.202 128.27 176.362 127.8 176.362 127.21C176.362 126.83 176.292 126.51 176.152 126.24C176.012 125.97 175.812 125.77 175.552 125.63C175.292 125.49 174.962 125.42 174.572 125.42H170.682V129.12V129.13Z" fill="#1D4C98"/>
<path d="M187.552 136.28C186.182 136.28 185.012 136.03 184.022 135.55C183.032 135.07 182.272 134.32 181.752 133.33C181.222 132.34 180.962 131.1 180.962 129.61C180.962 128.12 181.222 126.84 181.752 125.86C182.282 124.88 183.032 124.14 184.022 123.66C185.012 123.18 186.192 122.94 187.552 122.94C188.912 122.94 190.132 123.18 191.112 123.66C192.092 124.14 192.852 124.88 193.382 125.86C193.912 126.84 194.172 128.09 194.172 129.61C194.172 131.13 193.912 132.34 193.382 133.33C192.852 134.32 192.102 135.06 191.112 135.55C190.132 136.04 188.942 136.28 187.552 136.28ZM187.552 133.98C188.162 133.98 188.702 133.89 189.172 133.72C189.632 133.54 190.022 133.28 190.342 132.93C190.662 132.58 190.892 132.15 191.052 131.64C191.212 131.13 191.292 130.55 191.292 129.9V129.32C191.292 128.66 191.212 128.07 191.052 127.55C190.892 127.04 190.652 126.61 190.342 126.26C190.032 125.91 189.642 125.65 189.172 125.48C188.712 125.3 188.172 125.22 187.552 125.22C186.932 125.22 186.422 125.31 185.952 125.48C185.492 125.66 185.102 125.92 184.782 126.26C184.462 126.6 184.232 127.03 184.082 127.55C183.922 128.06 183.842 128.65 183.842 129.32V129.9C183.842 130.55 183.922 131.13 184.082 131.64C184.242 132.15 184.472 132.58 184.782 132.93C185.092 133.28 185.482 133.54 185.952 133.72C186.412 133.9 186.952 133.98 187.552 133.98Z" fill="#1D4C98"/>
<path d="M202.022 136.28C200.842 136.28 199.832 136.09 198.982 135.72C198.132 135.35 197.482 134.78 197.032 134.02C196.582 133.26 196.352 132.32 196.352 131.19V123.16H199.172V131.11C199.172 132.04 199.412 132.75 199.902 133.24C200.392 133.74 201.092 133.98 202.012 133.98C202.932 133.98 203.632 133.73 204.132 133.24C204.632 132.75 204.872 132.03 204.872 131.11V123.16H207.692V131.19C207.692 132.32 207.462 133.26 207.012 134.02C206.562 134.78 205.912 135.34 205.062 135.72C204.212 136.1 203.202 136.28 202.012 136.28H202.022Z" fill="#1D4C98"/>
<path d="M210.502 136.05V123.15H217.872C218.552 123.15 219.162 123.28 219.702 123.55C220.252 123.81 220.672 124.18 220.992 124.66C221.312 125.14 221.462 125.69 221.462 126.33C221.462 126.84 221.372 127.3 221.182 127.7C220.992 128.1 220.742 128.43 220.422 128.7C220.102 128.96 219.742 129.16 219.342 129.28V129.35C219.822 129.45 220.242 129.64 220.612 129.91C220.982 130.19 221.272 130.54 221.492 130.97C221.712 131.4 221.822 131.91 221.822 132.5C221.822 133.28 221.642 133.93 221.292 134.46C220.932 134.99 220.462 135.38 219.872 135.64C219.282 135.9 218.622 136.04 217.902 136.04H210.512L210.502 136.05ZM213.302 128.36H217.022C217.362 128.36 217.642 128.29 217.882 128.16C218.112 128.03 218.292 127.85 218.412 127.63C218.532 127.41 218.592 127.16 218.592 126.87C218.592 126.38 218.462 126.01 218.192 125.76C217.922 125.51 217.572 125.38 217.132 125.38H213.312V128.35L213.302 128.36ZM213.302 133.76H217.342C217.802 133.76 218.182 133.63 218.482 133.37C218.782 133.11 218.922 132.7 218.922 132.15C218.922 131.82 218.862 131.54 218.732 131.3C218.602 131.06 218.422 130.88 218.172 130.75C217.922 130.62 217.602 130.55 217.212 130.55H213.302V133.77V133.76Z" fill="#1D4C98"/>
<path d="M224.082 136.05V123.15H226.882V133.66H233.392V136.05H224.082Z" fill="#1D4C98"/>
<path d="M235.192 136.05V123.15H245.492V125.44H238.012V128.32H244.632V130.59H238.012V133.73H245.602V136.04H235.192V136.05Z" fill="#1D4C98"/>
<path d="M253.052 136.28C252.302 136.28 251.582 136.2 250.912 136.05C250.232 135.9 249.632 135.66 249.122 135.33C248.612 135 248.192 134.58 247.902 134.07C247.602 133.56 247.462 132.94 247.462 132.22V132.02C247.462 131.95 247.462 131.9 247.482 131.86H250.262C250.262 131.86 250.242 131.95 250.242 132.01V132.18C250.242 132.58 250.352 132.92 250.572 133.2C250.792 133.48 251.112 133.68 251.542 133.82C251.972 133.96 252.462 134.03 253.022 134.03C253.382 134.03 253.712 134.01 253.992 133.96C254.272 133.91 254.522 133.85 254.742 133.77C254.962 133.69 255.142 133.59 255.292 133.48C255.442 133.37 255.542 133.24 255.612 133.08C255.682 132.93 255.712 132.76 255.712 132.57C255.712 132.23 255.602 131.96 255.382 131.74C255.162 131.53 254.862 131.34 254.482 131.19C254.102 131.04 253.672 130.9 253.192 130.78C252.712 130.65 252.222 130.53 251.722 130.39C251.222 130.26 250.732 130.1 250.252 129.9C249.772 129.71 249.352 129.47 248.972 129.2C248.592 128.93 248.292 128.57 248.072 128.15C247.842 127.72 247.732 127.21 247.732 126.61C247.732 125.97 247.862 125.42 248.132 124.96C248.402 124.5 248.782 124.11 249.272 123.81C249.762 123.51 250.322 123.29 250.962 123.14C251.602 123 252.292 122.92 253.052 122.92C253.752 122.92 254.422 122.99 255.042 123.14C255.662 123.29 256.222 123.51 256.692 123.83C257.162 124.15 257.542 124.54 257.812 125.01C258.082 125.49 258.212 126.05 258.212 126.7V126.92H255.482V126.77C255.482 126.43 255.382 126.14 255.182 125.91C254.982 125.68 254.702 125.48 254.332 125.35C253.972 125.21 253.542 125.14 253.052 125.14C252.522 125.14 252.082 125.19 251.712 125.29C251.342 125.39 251.062 125.54 250.862 125.73C250.672 125.92 250.572 126.15 250.572 126.42C250.572 126.72 250.682 126.97 250.902 127.16C251.122 127.35 251.422 127.52 251.802 127.67C252.182 127.82 252.612 127.94 253.092 128.06C253.562 128.17 254.052 128.3 254.562 128.44C255.062 128.58 255.552 128.74 256.032 128.93C256.512 129.12 256.932 129.35 257.312 129.64C257.692 129.93 257.992 130.27 258.212 130.68C258.432 131.09 258.552 131.59 258.552 132.17C258.552 133.16 258.312 133.96 257.842 134.56C257.362 135.16 256.712 135.6 255.882 135.88C255.052 136.15 254.112 136.29 253.042 136.29L253.052 136.28Z" fill="#1D4C98"/>
<path d="M260.792 136.05V123.15H263.592V128.26H269.312V123.15H272.112V136.05H269.312V130.64H263.592V136.05H260.792Z" fill="#1D4C98"/>
<path d="M280.982 136.28C279.612 136.28 278.442 136.03 277.452 135.55C276.462 135.07 275.702 134.32 275.182 133.33C274.652 132.34 274.392 131.1 274.392 129.61C274.392 128.12 274.652 126.84 275.182 125.86C275.712 124.88 276.462 124.14 277.452 123.66C278.442 123.18 279.622 122.94 280.982 122.94C282.342 122.94 283.562 123.18 284.542 123.66C285.522 124.14 286.282 124.88 286.812 125.86C287.342 126.84 287.602 128.09 287.602 129.61C287.602 131.13 287.342 132.34 286.812 133.33C286.282 134.32 285.532 135.06 284.542 135.55C283.562 136.04 282.372 136.28 280.982 136.28ZM280.982 133.98C281.592 133.98 282.132 133.89 282.602 133.72C283.062 133.54 283.452 133.28 283.772 132.93C284.092 132.58 284.322 132.15 284.482 131.64C284.642 131.13 284.722 130.55 284.722 129.9V129.32C284.722 128.66 284.642 128.07 284.482 127.55C284.322 127.04 284.082 126.61 283.772 126.26C283.462 125.91 283.072 125.65 282.602 125.48C282.142 125.3 281.602 125.22 280.982 125.22C280.362 125.22 279.852 125.31 279.382 125.48C278.922 125.66 278.532 125.92 278.212 126.26C277.892 126.6 277.662 127.03 277.512 127.55C277.352 128.06 277.272 128.65 277.272 129.32V129.9C277.272 130.55 277.352 131.13 277.512 131.64C277.672 132.15 277.902 132.58 278.212 132.93C278.522 133.28 278.912 133.54 279.382 133.72C279.842 133.9 280.382 133.98 280.982 133.98Z" fill="#1D4C98"/>
<path d="M295.892 136.28C294.522 136.28 293.352 136.03 292.362 135.55C291.372 135.07 290.612 134.32 290.092 133.33C289.562 132.34 289.302 131.1 289.302 129.61C289.302 128.12 289.562 126.84 290.092 125.86C290.622 124.88 291.372 124.14 292.362 123.66C293.352 123.18 294.532 122.94 295.892 122.94C297.252 122.94 298.472 123.18 299.452 123.66C300.432 124.14 301.192 124.88 301.722 125.86C302.252 126.84 302.512 128.09 302.512 129.61C302.512 131.13 302.252 132.34 301.722 133.33C301.192 134.32 300.442 135.06 299.452 135.55C298.472 136.04 297.282 136.28 295.892 136.28ZM295.892 133.98C296.502 133.98 297.042 133.89 297.512 133.72C297.972 133.54 298.362 133.28 298.682 132.93C299.002 132.58 299.232 132.15 299.392 131.64C299.552 131.13 299.632 130.55 299.632 129.9V129.32C299.632 128.66 299.552 128.07 299.392 127.55C299.232 127.04 298.992 126.61 298.682 126.26C298.372 125.91 297.982 125.65 297.512 125.48C297.052 125.3 296.512 125.22 295.892 125.22C295.272 125.22 294.762 125.31 294.292 125.48C293.832 125.66 293.442 125.92 293.122 126.26C292.802 126.6 292.572 127.03 292.422 127.55C292.262 128.06 292.182 128.65 292.182 129.32V129.9C292.182 130.55 292.262 131.13 292.422 131.64C292.582 132.15 292.812 132.58 293.122 132.93C293.432 133.28 293.822 133.54 294.292 133.72C294.752 133.9 295.292 133.98 295.892 133.98Z" fill="#1D4C98"/>
<path d="M307.472 136.05V125.5H303.332V123.15H314.442V125.5H310.292V136.05H307.472Z" fill="#1D4C98"/>
<path d="M316.342 136.05V123.15H319.142V136.05H316.342Z" fill="#1D4C98"/>
<path d="M322.002 136.05V123.15H324.582L329.772 130.11C329.842 130.2 329.942 130.32 330.052 130.48C330.162 130.64 330.272 130.79 330.372 130.94C330.472 131.09 330.542 131.21 330.582 131.3H330.672V123.16H333.322V136.06H330.742L325.442 128.93C325.312 128.75 325.182 128.56 325.042 128.35C324.902 128.14 324.802 127.97 324.742 127.86H324.652V136.06H322.002V136.05Z" fill="#1D4C98"/>
<path d="M342.042 136.28C340.012 136.28 338.452 135.74 337.352 134.65C336.252 133.57 335.702 131.88 335.702 129.6C335.702 128.08 335.962 126.83 336.492 125.85C337.022 124.87 337.782 124.13 338.782 123.65C339.782 123.17 340.992 122.93 342.392 122.93C343.232 122.93 344.022 123.02 344.762 123.21C345.502 123.4 346.152 123.69 346.722 124.07C347.292 124.45 347.742 124.94 348.052 125.53C348.372 126.11 348.532 126.81 348.532 127.61H345.692C345.692 127.22 345.612 126.88 345.442 126.58C345.272 126.28 345.042 126.03 344.732 125.83C344.432 125.63 344.092 125.48 343.702 125.38C343.312 125.28 342.902 125.23 342.482 125.23C341.832 125.23 341.262 125.32 340.772 125.48C340.282 125.64 339.882 125.91 339.562 126.25C339.242 126.59 339.002 127.02 338.832 127.54C338.672 128.05 338.592 128.65 338.592 129.33V129.89C338.592 130.83 338.732 131.6 339.002 132.2C339.282 132.8 339.692 133.25 340.242 133.54C340.792 133.84 341.472 133.98 342.292 133.98C342.972 133.98 343.572 133.88 344.092 133.67C344.612 133.46 345.022 133.17 345.312 132.78C345.612 132.39 345.752 131.91 345.752 131.35V131.22H341.902V129.08H348.542V136.05H346.702L346.462 134.66C346.082 135.02 345.682 135.33 345.252 135.56C344.822 135.79 344.342 135.98 343.812 136.09C343.282 136.21 342.692 136.27 342.042 136.27V136.28Z" fill="#1D4C98"/>
<path d="M64.8019 161.82L61.4219 148.92H64.3919L66.2719 156.61C66.3119 156.72 66.3419 156.89 66.3819 157.11C66.4219 157.33 66.4519 157.56 66.4919 157.8C66.5319 158.04 66.5619 158.25 66.5819 158.44H66.6719C66.7019 158.3 66.7219 158.15 66.7419 157.97C66.7619 157.79 66.7819 157.62 66.8119 157.45C66.8419 157.28 66.8719 157.12 66.9019 156.97C66.9319 156.82 66.9519 156.7 66.9719 156.61L68.7219 148.92H72.0719L73.8619 156.61C73.9019 156.74 73.9319 156.91 73.9719 157.12C74.0119 157.33 74.0419 157.56 74.0819 157.8C74.1219 158.04 74.1519 158.25 74.1719 158.44H74.2619C74.2819 158.3 74.3119 158.15 74.3419 157.99C74.3719 157.83 74.4019 157.66 74.4319 157.49C74.4619 157.32 74.5019 157.16 74.5319 157.01C74.5719 156.86 74.6019 156.73 74.6219 156.61L76.4819 148.92H79.1719L75.7719 161.82H72.5719L70.6719 153.89C70.6319 153.71 70.5919 153.51 70.5519 153.28C70.5119 153.05 70.4719 152.82 70.4319 152.59C70.3919 152.36 70.3619 152.16 70.3419 151.99H70.2719C70.2419 152.17 70.2219 152.37 70.1819 152.61C70.1419 152.85 70.1119 153.08 70.0719 153.31C70.0319 153.53 69.9819 153.73 69.9519 153.89L68.0719 161.82H64.7819H64.8019Z" fill="#1D4C98"/>
<path d="M80.8019 161.82V148.92H91.1019V151.21H83.6219V154.09H90.2419V156.36H83.6219V159.5H91.2119V161.81H80.8019V161.82Z" fill="#1D4C98"/>
<path d="M93.6418 161.82V148.92H96.4418V159.43H102.952V161.82H93.6418Z" fill="#1D4C98"/>
<path d="M104.752 161.82V148.92H110.012C111.352 148.92 112.492 149.15 113.432 149.62C114.372 150.08 115.092 150.79 115.602 151.74C116.112 152.69 116.362 153.9 116.362 155.38C116.362 156.86 116.112 158.06 115.602 159.01C115.092 159.96 114.372 160.67 113.432 161.13C112.492 161.59 111.352 161.83 110.012 161.83H104.752V161.82ZM107.552 159.5H109.992C110.552 159.5 111.062 159.42 111.492 159.25C111.932 159.09 112.292 158.85 112.582 158.53C112.872 158.21 113.092 157.81 113.242 157.33C113.392 156.85 113.472 156.29 113.472 155.65V155.09C113.472 154.45 113.402 153.89 113.242 153.41C113.092 152.93 112.872 152.53 112.582 152.21C112.292 151.89 111.932 151.65 111.492 151.48C111.052 151.31 110.552 151.23 109.992 151.23H107.552V159.52V159.5Z" fill="#1D4C98"/>
<path d="M118.642 161.82V148.92H121.442V161.82H118.642Z" fill="#1D4C98"/>
<path d="M124.302 161.82V148.92H126.882L132.072 155.88C132.142 155.97 132.242 156.09 132.352 156.25C132.462 156.41 132.572 156.56 132.672 156.71C132.772 156.86 132.842 156.98 132.882 157.07H132.972V148.93H135.622V161.83H133.042L127.742 154.7C127.612 154.52 127.482 154.33 127.342 154.12C127.202 153.91 127.102 153.74 127.042 153.63H126.952V161.83H124.302V161.82Z" fill="#1D4C98"/>
<path d="M144.342 162.04C142.312 162.04 140.752 161.5 139.652 160.41C138.552 159.33 138.002 157.64 138.002 155.36C138.002 153.84 138.262 152.59 138.792 151.61C139.322 150.63 140.082 149.89 141.082 149.41C142.082 148.93 143.292 148.69 144.692 148.69C145.532 148.69 146.322 148.78 147.062 148.97C147.802 149.16 148.452 149.45 149.022 149.83C149.592 150.21 150.042 150.7 150.352 151.29C150.672 151.87 150.832 152.57 150.832 153.37H147.992C147.992 152.98 147.912 152.64 147.742 152.34C147.572 152.04 147.342 151.79 147.032 151.59C146.732 151.39 146.392 151.24 146.002 151.14C145.612 151.04 145.202 150.99 144.782 150.99C144.132 150.99 143.562 151.08 143.072 151.24C142.582 151.4 142.182 151.67 141.862 152.01C141.542 152.35 141.302 152.78 141.132 153.3C140.972 153.81 140.892 154.41 140.892 155.09V155.65C140.892 156.59 141.032 157.36 141.302 157.96C141.582 158.56 141.992 159.01 142.542 159.3C143.092 159.6 143.772 159.74 144.592 159.74C145.272 159.74 145.872 159.64 146.392 159.43C146.912 159.22 147.322 158.93 147.612 158.54C147.912 158.15 148.052 157.67 148.052 157.11V156.98H144.202V154.84H150.842V161.81H149.002L148.762 160.42C148.382 160.78 147.982 161.09 147.552 161.32C147.122 161.55 146.642 161.74 146.112 161.85C145.582 161.97 144.992 162.03 144.342 162.03V162.04Z" fill="#1D4C98"/>
<path d="M159.952 157.94C159.452 157.94 159.002 157.83 158.622 157.61C158.232 157.39 157.932 157.09 157.712 156.7C157.492 156.31 157.382 155.87 157.382 155.37C157.382 154.87 157.492 154.41 157.712 154.02C157.932 153.63 158.232 153.32 158.622 153.1C159.012 152.87 159.452 152.76 159.952 152.76C160.452 152.76 160.912 152.87 161.302 153.1C161.692 153.32 162.002 153.63 162.222 154.02C162.442 154.41 162.562 154.86 162.562 155.37C162.562 155.88 162.452 156.32 162.222 156.7C161.992 157.09 161.692 157.39 161.302 157.61C160.912 157.83 160.462 157.94 159.952 157.94Z" fill="#1D4C98"/>
<path d="M174.992 162.04C173.652 162.04 172.502 161.8 171.552 161.33C170.602 160.86 169.872 160.13 169.382 159.14C168.892 158.15 168.642 156.89 168.642 155.36C168.642 153.1 169.192 151.43 170.302 150.33C171.412 149.23 172.972 148.68 174.992 148.68C176.092 148.68 177.082 148.87 177.962 149.24C178.842 149.62 179.532 150.18 180.042 150.93C180.552 151.68 180.802 152.63 180.802 153.77H177.982C177.982 153.17 177.862 152.66 177.612 152.25C177.362 151.84 177.022 151.52 176.582 151.3C176.142 151.08 175.622 150.97 175.032 150.97C174.232 150.97 173.572 151.13 173.052 151.44C172.532 151.75 172.152 152.21 171.902 152.82C171.662 153.43 171.532 154.17 171.532 155.05V155.63C171.532 156.53 171.662 157.29 171.912 157.9C172.162 158.51 172.542 158.97 173.052 159.27C173.562 159.57 174.212 159.73 175.012 159.73C175.642 159.73 176.182 159.62 176.652 159.41C177.112 159.2 177.472 158.88 177.722 158.47C177.972 158.06 178.102 157.55 178.102 156.95H180.812C180.812 158.09 180.562 159.04 180.072 159.79C179.582 160.54 178.892 161.1 178.012 161.47C177.132 161.84 176.132 162.03 175.002 162.03L174.992 162.04Z" fill="#1D4C98"/>
<path d="M189.012 162.04C187.642 162.04 186.472 161.79 185.482 161.31C184.492 160.83 183.732 160.08 183.212 159.09C182.682 158.1 182.422 156.86 182.422 155.37C182.422 153.88 182.682 152.6 183.212 151.62C183.742 150.64 184.492 149.9 185.482 149.42C186.472 148.94 187.652 148.7 189.012 148.7C190.372 148.7 191.592 148.94 192.572 149.42C193.552 149.9 194.312 150.64 194.842 151.62C195.372 152.6 195.632 153.85 195.632 155.37C195.632 156.89 195.372 158.1 194.842 159.09C194.312 160.08 193.562 160.82 192.572 161.31C191.592 161.8 190.402 162.04 189.012 162.04ZM189.012 159.75C189.622 159.75 190.162 159.66 190.632 159.49C191.092 159.31 191.482 159.05 191.802 158.7C192.122 158.35 192.352 157.92 192.512 157.41C192.672 156.9 192.752 156.32 192.752 155.67V155.09C192.752 154.43 192.672 153.84 192.512 153.32C192.352 152.81 192.112 152.38 191.802 152.03C191.492 151.68 191.102 151.42 190.632 151.25C190.172 151.07 189.632 150.99 189.012 150.99C188.392 150.99 187.882 151.08 187.412 151.25C186.952 151.43 186.562 151.69 186.242 152.03C185.922 152.37 185.692 152.8 185.542 153.32C185.382 153.83 185.302 154.42 185.302 155.09V155.67C185.302 156.32 185.382 156.9 185.542 157.41C185.702 157.92 185.932 158.35 186.242 158.7C186.552 159.05 186.942 159.31 187.412 159.49C187.872 159.67 188.412 159.75 189.012 159.75Z" fill="#1D4C98"/>
<path d="M197.902 161.82V148.92H200.482L205.672 155.88C205.742 155.97 205.842 156.09 205.952 156.25C206.062 156.41 206.172 156.56 206.272 156.71C206.372 156.86 206.442 156.98 206.482 157.07H206.572V148.93H209.222V161.83H206.642L201.342 154.7C201.212 154.52 201.082 154.33 200.942 154.12C200.802 153.91 200.702 153.74 200.642 153.63H200.552V161.83H197.902V161.82Z" fill="#1D4C98"/>
<path d="M217.102 162.04C216.352 162.04 215.632 161.96 214.962 161.81C214.282 161.66 213.682 161.42 213.172 161.09C212.662 160.76 212.242 160.34 211.952 159.83C211.652 159.32 211.512 158.7 211.512 157.98V157.78C211.512 157.71 211.512 157.66 211.532 157.62H214.312C214.312 157.62 214.292 157.71 214.292 157.77V157.94C214.292 158.34 214.402 158.68 214.622 158.96C214.842 159.24 215.162 159.44 215.592 159.58C216.022 159.72 216.512 159.79 217.072 159.79C217.432 159.79 217.762 159.77 218.042 159.72C218.322 159.67 218.572 159.61 218.792 159.53C219.012 159.45 219.192 159.35 219.342 159.24C219.492 159.13 219.592 159 219.662 158.84C219.732 158.69 219.762 158.52 219.762 158.33C219.762 157.99 219.652 157.72 219.432 157.5C219.212 157.29 218.912 157.1 218.532 156.95C218.152 156.8 217.722 156.66 217.242 156.54C216.762 156.41 216.272 156.29 215.772 156.15C215.272 156.02 214.782 155.86 214.302 155.66C213.822 155.47 213.402 155.23 213.022 154.96C212.642 154.69 212.342 154.33 212.122 153.91C211.892 153.48 211.782 152.97 211.782 152.37C211.782 151.73 211.912 151.18 212.182 150.72C212.452 150.26 212.832 149.87 213.322 149.57C213.812 149.27 214.372 149.05 215.012 148.9C215.652 148.75 216.342 148.68 217.102 148.68C217.802 148.68 218.472 148.75 219.092 148.9C219.712 149.05 220.272 149.27 220.742 149.59C221.212 149.91 221.592 150.3 221.862 150.77C222.132 151.25 222.262 151.81 222.262 152.46V152.68H219.532V152.53C219.532 152.19 219.432 151.9 219.232 151.67C219.032 151.44 218.752 151.24 218.382 151.11C218.022 150.97 217.592 150.9 217.102 150.9C216.572 150.9 216.132 150.95 215.762 151.05C215.392 151.15 215.112 151.3 214.912 151.49C214.722 151.68 214.622 151.91 214.622 152.18C214.622 152.48 214.732 152.73 214.952 152.92C215.172 153.11 215.472 153.28 215.852 153.43C216.232 153.58 216.662 153.7 217.142 153.82C217.612 153.93 218.102 154.06 218.612 154.2C219.112 154.34 219.602 154.5 220.082 154.69C220.562 154.88 220.982 155.11 221.362 155.4C221.742 155.69 222.042 156.03 222.262 156.44C222.482 156.85 222.602 157.35 222.602 157.93C222.602 158.92 222.362 159.72 221.892 160.32C221.412 160.92 220.762 161.36 219.932 161.64C219.102 161.91 218.162 162.05 217.092 162.05L217.102 162.04Z" fill="#1D4C98"/>
<path d="M230.432 162.04C229.252 162.04 228.242 161.85 227.392 161.48C226.542 161.11 225.892 160.54 225.442 159.78C224.992 159.02 224.762 158.08 224.762 156.95V148.92H227.582V156.87C227.582 157.8 227.822 158.51 228.312 159C228.802 159.5 229.502 159.74 230.422 159.74C231.342 159.74 232.042 159.49 232.542 159C233.042 158.51 233.282 157.79 233.282 156.87V148.92H236.102V156.95C236.102 158.08 235.872 159.02 235.422 159.78C234.972 160.54 234.322 161.1 233.472 161.48C232.622 161.86 231.612 162.04 230.422 162.04H230.432Z" fill="#1D4C98"/>
<path d="M238.912 161.82V148.92H241.712V159.43H248.222V161.82H238.912Z" fill="#1D4C98"/>
<path d="M251.432 161.82V151.27H247.292V148.92H258.402V151.27H254.252V161.82H251.432Z" fill="#1D4C98"/>
<path d="M260.302 161.82V148.92H263.102V161.82H260.302Z" fill="#1D4C98"/>
<path d="M265.962 161.82V148.92H268.542L273.732 155.88C273.802 155.97 273.902 156.09 274.012 156.25C274.122 156.41 274.232 156.56 274.332 156.71C274.432 156.86 274.502 156.98 274.542 157.07H274.632V148.93H277.282V161.83H274.702L269.402 154.7C269.272 154.52 269.142 154.33 269.002 154.12C268.862 153.91 268.762 153.74 268.702 153.63H268.612V161.83H265.962V161.82Z" fill="#1D4C98"/>
<path d="M286.002 162.04C283.972 162.04 282.412 161.5 281.312 160.41C280.212 159.33 279.662 157.64 279.662 155.36C279.662 153.84 279.922 152.59 280.452 151.61C280.982 150.63 281.742 149.89 282.742 149.41C283.742 148.93 284.952 148.69 286.352 148.69C287.192 148.69 287.982 148.78 288.722 148.97C289.462 149.16 290.112 149.45 290.682 149.83C291.252 150.21 291.702 150.7 292.012 151.29C292.332 151.87 292.492 152.57 292.492 153.37H289.652C289.652 152.98 289.572 152.64 289.402 152.34C289.232 152.04 289.002 151.79 288.692 151.59C288.392 151.39 288.052 151.24 287.662 151.14C287.272 151.04 286.862 150.99 286.442 150.99C285.792 150.99 285.222 151.08 284.732 151.24C284.242 151.4 283.842 151.67 283.522 152.01C283.202 152.35 282.962 152.78 282.792 153.3C282.632 153.81 282.552 154.41 282.552 155.09V155.65C282.552 156.59 282.692 157.36 282.962 157.96C283.242 158.56 283.652 159.01 284.202 159.3C284.752 159.6 285.432 159.74 286.252 159.74C286.932 159.74 287.532 159.64 288.052 159.43C288.572 159.22 288.982 158.93 289.272 158.54C289.572 158.15 289.712 157.67 289.712 157.11V156.98H285.862V154.84H292.502V161.81H290.662L290.422 160.42C290.042 160.78 289.642 161.09 289.212 161.32C288.782 161.55 288.302 161.74 287.772 161.85C287.242 161.97 286.652 162.03 286.002 162.03V162.04Z" fill="#1D4C98"/>
<path d="M254.232 69.33L247.162 97.34H270.512L282.572 49.59L281.182 48.44C269.822 63.95 254.242 69.33 254.242 69.33H254.232Z" fill="#1D4C98"/>
<path d="M87.6818 47.36C87.6818 47.36 99.7418 8.83002 57.4818 8.83002C30.1618 8.83002 9.95179 23.66 2.23179 54.25C-5.48821 84.84 7.19179 99.78 34.5118 99.78C76.7818 99.78 84.1418 61.37 84.1718 61.25H59.1818C59.1518 61.37 56.1818 81.45 39.1318 81.45C27.8018 81.45 22.3118 73.63 27.2018 54.25C32.0918 34.87 41.0518 27.16 52.8418 27.16C69.8918 27.16 62.6818 47.36 62.6818 47.36H87.6718H87.6818Z" fill="#1D4C98"/>
<path d="M139.482 75.27L140.922 11.28H107.532L85.8019 97.33H109.152L123.632 40.01L122.702 97.33H145.112L173.022 40.01L158.542 97.33H181.892L203.622 11.28H170.352L139.482 75.27Z" fill="#1D4C98"/>
<path d="M353.552 11.28H306.502L284.772 97.33H308.122L315.082 69.78H338.782C356.412 69.78 369.522 57.64 373.792 40.71C377.562 25.77 372.932 11.29 353.552 11.29V11.28ZM334.412 51.45H319.702L325.212 29.62H339.922C349.142 29.62 352.022 33.47 350.202 40.71C348.382 47.95 343.632 51.45 334.412 51.45Z" fill="#1D4C98"/>
<path d="M233.052 43.62L241.222 11.29H217.872L196.142 97.34H219.492L228.312 62.43H228.332C228.512 62.43 228.732 62.44 228.982 62.45C230.202 56.21 230.702 49.96 233.612 43.72C233.432 43.69 233.222 43.65 233.072 43.63L233.052 43.62Z" fill="#1D4C98"/>
<path d="M284.982 8.89L278.992 13.36L262.102 25.96L257.562 29.34L261.192 29.58L272.002 30.3C271.582 30.76 271.142 31.21 270.682 31.67C270.682 31.67 266.982 35.33 262.142 38.1C261.162 38.67 259.292 39.62 258.462 39.98C258.252 40.07 258.042 40.17 257.822 40.26C257.382 40.45 256.932 40.66 256.492 40.83C255.612 41.19 254.732 41.53 253.892 41.81C251.742 42.54 249.732 43.07 247.822 43.45C247.072 43.6 246.322 43.71 245.602 43.83C243.452 44.13 241.502 44.24 239.792 44.24C236.992 44.24 234.912 43.94 233.612 43.71C230.702 49.95 230.212 56.2 228.982 62.44C229.492 62.46 230.122 62.47 230.902 62.47C232.562 62.47 234.782 62.39 237.422 62.09C238.302 61.98 239.232 61.85 240.202 61.69C244.072 61.05 248.582 59.92 253.362 57.92C254.752 57.34 256.182 56.68 257.632 55.94C257.632 55.94 260.912 54.26 264.072 52.1C273.362 45.75 279.872 36.72 279.872 36.72C280.442 35.93 281.062 35.02 281.702 34.02L283.042 35.13L286.582 38.09L290.262 41.13L292.482 42.97L294.342 24.97L295.992 8.84L296.912 0L285.012 8.87L284.982 8.89Z" fill="url(#paint0_linear_16_395)"/>
<defs>
<linearGradient id="paint0_linear_16_395" x1="244.622" y1="59.34" x2="267.232" y2="39.7" gradientUnits="userSpaceOnUse">
<stop stop-color="#1D4C98"/>
<stop offset="1" stop-color="#8C96AA"/>
</linearGradient>
</defs>
</svg>
